<svg xmlns="http://www.w3.org/2000/svg" xmlns:xlink="http://www.w3.org/1999/xlink" width="500" zoomAndPan="magnify" viewBox="0 0 375 374.999991" height="500" preserveAspectRatio="xMidYMid meet" version="1.0"><defs><clipPath id="d2b43fc9bb"><path d="M 38 192 L 233 192 L 233 297.589844 L 38 297.589844 Z M 38 192 " clip-rule="nonzero"/></clipPath><clipPath id="5426f1f50e"><path d="M 195 192 L 337.277344 192 L 337.277344 291 L 195 291 Z M 195 192 " clip-rule="nonzero"/></clipPath><clipPath id="cea47cedfb"><path d="M 142 77.410156 L 337 77.410156 L 337 183 L 142 183 Z M 142 77.410156 " clip-rule="nonzero"/></clipPath><clipPath id="4b345500d6"><path d="M 37.710938 84 L 180 84 L 180 183 L 37.710938 183 Z M 37.710938 84 " clip-rule="nonzero"/></clipPath><clipPath id="8f7ed763f7"><path d="M 138 138 L 237 138 L 237 237 L 138 237 Z M 138 138 " clip-rule="nonzero"/></clipPath><clipPath id="66e5260d64"><path d="M 190.328125 236.472656 L 138.441406 187.421875 L 184.664062 138.523438 L 236.554688 187.574219 Z M 190.328125 236.472656 " clip-rule="nonzero"/></clipPath></defs><g clip-path="url(#d2b43fc9bb)"><path fill="#6a0dad" d="M 232.800781 297.535156 L 128.113281 192.847656 L 38.53125 192.847656 L 143.214844 297.535156 Z M 232.800781 297.535156 " fill-opacity="1" fill-rule="nonzero"/></g><g clip-path="url(#5426f1f50e)"><path fill="#4c82c6" d="M 239.925781 290.410156 L 337.484375 192.847656 L 247.910156 192.847656 L 195.136719 245.617188 Z M 239.925781 290.410156 " fill-opacity="1" fill-rule="nonzero"/></g><g clip-path="url(#cea47cedfb)"><path fill="#4c82c6" d="M 142.191406 77.464844 L 246.878906 182.152344 L 336.460938 182.152344 L 231.777344 77.464844 Z M 142.191406 77.464844 " fill-opacity="1" fill-rule="nonzero"/></g><g clip-path="url(#4b345500d6)"><path fill="#6a0dad" d="M 135.0625 84.589844 L 37.507812 182.152344 L 127.082031 182.152344 L 179.851562 129.382812 Z M 135.0625 84.589844 " fill-opacity="1" fill-rule="nonzero"/></g><g clip-path="url(#8f7ed763f7)"><g clip-path="url(#66e5260d64)"><path fill="#e5e5e5" d="M 190.328125 236.472656 L 138.375 187.359375 L 184.597656 138.460938 L 236.554688 187.574219 Z M 190.328125 236.472656 " fill-opacity="1" fill-rule="nonzero"/></g></g></svg>